control3min_grf.mot
version=1
nRows=27
nColumns 19
inDegrees=yes
endheader
time	1_ground_force_vx	1_ground_force_vy	1_ground_force_vz	1_ground_force_px	1_ground_force_py	1_ground_force_pz	1_ground_torque_x	1_ground_torque_y	1_ground_torque_z	2_ground_force_vx	2_ground_force_vy	2_ground_force_vz	2_ground_force_px	2_ground_force_py	2_ground_force_pz	2_ground_torque_x	2_ground_torque_y	2_ground_torque_z
            1.253500	            0.092566	           -1.082756	            0.270270	           -0.233013	            0.005581	           -0.255695	           -0.067321	           -0.120125	            0.003600	            0.526087	           -1.872929	            9.331903	           -0.232311	            0.006130	           -0.833667	            0.494523	           -1.736121	           -0.402268
            1.254000	            0.000863	           -0.361908	            0.319445	           -0.233013	            0.005581	           -0.255695	            0.043054	           -0.037276	            0.074939	            0.667904	           -2.240216	            9.189744	           -0.232311	            0.006130	           -0.833667	            0.494574	           -1.745708	           -0.364601
            1.254500	            0.137529	            0.000027	           -0.000341	           -0.233013	            0.005581	           -0.255695	            0.000149	            0.027552	            0.062376	            0.617731	           -1.319644	            9.193050	           -0.232311	            0.006130	           -0.833667	            0.457054	           -1.755431	           -0.326919
            1.255000	            0.229655	           -0.541343	            0.134680	           -0.233013	            0.005581	           -0.255695	           -0.080601	            0.101772	            0.010429	            0.386784	           -2.241064	            9.142936	           -0.232311	            0.006130	           -0.833667	            0.456985	           -1.736526	           -0.326851
            1.255500	            0.138374	            0.358985	            0.368052	           -0.233013	            0.005581	           -0.255695	           -0.015998	           -0.008928	           -0.050542	            0.246132	           -2.240734	            8.908355	           -0.232311	            0.006130	           -0.833667	            0.457122	           -1.774336	           -0.326986
            1.256000	            0.184007	           -0.361479	            0.227279	           -0.233013	            0.005581	           -0.255695	           -0.065885	           -0.018327	           -0.010881	            0.479820	           -2.056577	            9.143553	           -0.232311	            0.006130	           -0.833667	            0.513461	           -1.773999	           -0.364710
            1.256500	            0.046104	           -0.180650	            0.090825	           -0.233013	            0.005581	           -0.255695	            0.033713	           -0.027619	           -0.017039	            0.384791	           -1.688619	            9.144907	           -0.232311	            0.006130	           -0.833667	            0.475848	           -1.764614	           -0.383511
            1.257000	           -0.045501	           -0.000599	            0.137682	           -0.233013	            0.005581	           -0.255695	           -0.024579	           -0.092536	            0.016508	            0.481772	           -2.608687	            9.047726	           -0.232311	            0.006130	           -0.833667	            0.494677	           -1.783250	           -0.440137
            1.257500	            0.183959	           -0.721814	            0.179877	           -0.233013	            0.005581	           -0.255695	            0.048891	           -0.036712	           -0.030030	            0.432305	           -1.872598	            9.144230	           -0.232311	            0.006130	           -0.833667	            0.456935	           -1.726938	           -0.364518
            1.258000	           -0.137074	           -0.000813	            0.183765	           -0.233013	            0.005581	           -0.255695	           -0.026804	            0.055721	           -0.080751	            0.527958	           -2.424370	            9.048363	           -0.232311	            0.006130	           -0.833667	            0.494634	           -1.764546	           -0.383519
            1.258500	            0.138212	           -0.001153	            0.274794	           -0.233013	            0.005581	           -0.255695	           -0.011910	            0.037367	           -0.069138	            0.387470	           -2.425379	            9.189207	           -0.232311	            0.006130	           -0.833667	            0.325599	           -1.765426	           -0.308046
            1.259000	            0.183860	           -0.181017	            0.182196	           -0.233013	            0.005581	           -0.255695	           -0.007596	            0.018415	            0.045519	            0.341867	           -2.793176	            9.000200	           -0.232311	            0.006130	           -0.833667	            0.438294	           -1.764884	           -0.345795
            1.259500	            0.275857	           -1.262790	            0.223186	           -0.233013	            0.005581	           -0.255695	            0.009941	           -0.064729	            0.049067	            0.528643	           -2.608686	            9.094634	           -0.232311	            0.006130	           -0.833667	            0.494618	           -1.773596	           -0.496654
            1.260000	            0.046235	           -0.901713	            0.087733	           -0.233013	            0.005581	           -0.255695	           -0.040670	           -0.074253	            0.076962	            0.529390	           -2.793503	            9.281689	           -0.232311	            0.006130	           -0.833667	            0.438236	           -1.764414	           -0.477746
            1.260500	            0.137987	           -1.262226	            0.085960	           -0.233013	            0.005581	           -0.255695	            0.091019	           -0.055780	            0.099434	            0.342634	           -2.978161	            9.234184	           -0.232311	            0.006130	           -0.833667	            0.438159	           -1.736257	           -0.421094
            1.261000	            0.275678	           -0.902062	            0.178876	           -0.233013	            0.005581	           -0.255695	           -0.063621	           -0.008962	           -0.025716	            0.387449	           -2.425212	            9.142279	           -0.232311	            0.006130	           -0.833667	            0.457096	           -1.764951	           -0.308102
            1.261500	            0.093232	           -0.363070	            0.594353	           -0.233013	            0.005581	           -0.255695	           -0.006467	            0.083333	           -0.014502	            0.430332	           -1.320320	            9.193129	           -0.232311	            0.006130	           -0.833667	            0.456832	           -1.698580	           -0.364417
            1.262000	           -0.090922	            0.178872	            0.321992	           -0.233013	            0.005581	           -0.255695	           -0.013861	            0.009291	           -0.022640	            0.434922	           -2.608856	            9.047746	           -0.232311	            0.006130	           -0.833667	            0.419552	           -1.783656	           -0.402405
            1.262500	            0.321716	           -0.722180	            0.271247	           -0.233013	            0.005581	           -0.255695	           -0.123958	           -0.008949	           -0.023618	            0.434943	           -2.609024	            9.094674	           -0.232311	            0.006130	           -0.833667	            0.475951	           -1.792972	           -0.383612
            1.263000	            0.184235	           -0.361872	            0.318990	           -0.233013	            0.005581	           -0.255695	           -0.050881	           -0.027806	            0.045435	            0.573560	           -2.056574	            9.237369	           -0.232311	            0.006130	           -0.833667	            0.419408	           -1.745778	           -0.421120
            1.263500	            0.000132	           -0.721063	           -0.003092	           -0.233013	            0.005581	           -0.255695	           -0.112149	           -0.110943	           -0.000172	            0.623713	           -2.976979	            9.187136	           -0.232311	            0.006130	           -0.833667	            0.381964	           -1.774473	           -0.364655
            1.264000	            0.046852	           -0.542361	            0.364415	           -0.233013	            0.005581	           -0.255695	            0.040758	           -0.064178	           -0.111191	            0.382111	           -0.951858	            9.100607	           -0.232311	            0.006130	           -0.833667	            0.400733	           -1.774271	           -0.402363
            1.264500	            0.046463	           -0.902106	            0.179445	           -0.233013	            0.005581	           -0.255695	           -0.007054	            0.018190	            0.077275	            0.531383	           -3.345948	            9.279718	           -0.232311	            0.006130	           -0.833667	            0.588679	           -1.792700	           -0.345960
            1.265000	            0.000458	           -1.262253	            0.086301	           -0.233013	            0.005581	           -0.255695	            0.015714	            0.027656	            0.018923	            0.482519	           -2.793505	            9.234781	           -0.232311	            0.006130	           -0.833667	            0.457021	           -1.755162	           -0.402320
            1.265500	            0.092321	           -0.361497	            0.227506	           -0.233013	            0.005581	           -0.255695	           -0.009537	            0.009292	            0.003986	            0.341908	           -2.793510	            9.094057	           -0.232311	            0.006130	           -0.833667	            0.457045	           -1.755364	           -0.345769
            1.266000	            0.047146	           -0.903286	            0.454581	           -0.233013	            0.005581	           -0.255695	           -0.018792	            0.055172	            0.077462	            0.574061	           -2.239383	            8.861288	           -0.232311	            0.006130	           -0.833667	            0.363128	           -1.764954	           -0.402313
            1.266500	            0.183959	           -0.721814	            0.179877	           -0.233013	            0.005581	           -0.255695	           -0.101138	           -0.073957	            0.026577	            0.294935	           -2.792675	            8.812508	           -0.232311	            0.006130	           -0.833667	            0.400775	           -1.783791	           -0.383546
